<svg version="1.1"
     xmlns="http://www.w3.org/2000/svg" viewBox="0 0 1456 198.72"><path fill="#363632" d="m10.01 3.28 17.73.02-.07 77.89c7.19-9.45 15.09-16.51 23.7-21.19 8.62-4.68 17.95-7.01 28-7 10.3.01 19.44 2.64 27.41 7.88s13.86 12.28 17.65 21.1c3.79 8.83 5.68 22.66 5.66 41.49l-.07 70.93-17.73-.02.06-65.74c.01-15.87-.61-26.47-1.87-31.79-2.19-9.12-6.17-15.98-11.95-20.59-5.78-4.61-13.36-6.91-22.73-6.92-10.72-.01-20.33 3.53-28.82 10.61-8.49 7.08-14.1 15.86-16.81 26.33-1.7 6.76-2.55 19.25-2.57 37.49l-.05 50.54-17.73-.02.19-191.01Zm270.82 141.88 14.94 7.87c-4.91 9.62-10.58 17.39-17.01 23.29-6.43 5.91-13.66 10.4-21.69 13.47-8.03 3.07-17.12 4.61-27.26 4.6-22.48-.02-40.05-7.4-52.72-22.15-12.66-14.74-18.99-31.41-18.97-49.98.02-17.48 5.4-33.05 16.14-46.72 13.62-17.38 31.84-26.06 54.66-26.04 23.49.02 42.25 8.95 56.26 26.78 9.96 12.59 15.02 28.3 15.17 47.13l-124-.11c.32 16.01 5.43 29.13 15.31 39.38 9.88 10.24 22.09 15.37 36.64 15.39 7.02.01 13.84-1.21 20.48-3.64s12.28-5.67 16.94-9.7c4.65-4.06 9.69-10.57 15.11-19.57Zm.03-37.11c-2.36-9.46-5.8-17.02-10.32-22.68-4.52-5.66-10.49-10.23-17.93-13.7-7.44-3.47-15.26-5.21-23.45-5.21-13.53-.01-25.16 4.33-34.89 13.01-7.11 6.33-12.49 15.82-16.13 28.48l102.72.1ZM467.51 53.1l-.13 137.8-17.48-.02.02-23.69c-7.44 9.03-15.78 15.82-25.03 20.37s-19.36 6.82-30.34 6.81c-19.51-.02-36.15-7.11-49.95-21.26-13.79-14.15-20.68-31.37-20.66-51.63.02-19.84 7-36.81 20.94-50.9 13.95-14.09 30.71-21.12 50.3-21.1 11.31.01 21.55 2.43 30.71 7.25S443.08 68.78 450 78.41l.02-25.33 17.49.02Zm-70.87 13.49c-9.87-.01-18.98 2.41-27.33 7.25-8.36 4.84-15 11.65-19.94 20.42-4.94 8.77-7.42 18.04-7.43 27.82-.01 9.7 2.47 18.98 7.44 27.84 4.97 8.86 11.64 15.76 20.03 20.7s17.39 7.42 27 7.43c9.7.01 18.89-2.43 27.59-7.31 8.69-4.88 15.38-11.5 20.07-19.84 4.69-8.35 7.04-17.75 7.05-28.21.01-15.94-5.22-29.27-15.72-39.99-10.49-10.73-23.41-16.1-38.76-16.11ZM511.65 3.37l17.73.02-.18 191-17.73-.02.18-191Zm76.81 2.03 17.73.02-.05 51.17 28.12.03v15.33l-28.13-.03-.11 122.48-17.73-.02.11-122.48-24.19-.02V56.55l24.2.02.05-51.17Zm79.21-2.12 17.73.02-.07 77.89c7.19-9.45 15.09-16.51 23.7-21.19 8.62-4.68 17.95-7.01 28-7 10.3.01 19.44 2.64 27.41 7.88s13.86 12.28 17.65 21.1c3.79 8.83 5.68 22.66 5.66 41.49l-.07 70.93-17.73-.02.06-65.74c.01-15.87-.61-26.47-1.87-31.79-2.19-9.12-6.17-15.98-11.95-20.59-5.78-4.61-13.36-6.91-22.73-6.92-10.72-.01-20.33 3.53-28.82 10.61s-14.1 15.86-16.81 26.33c-1.7 6.76-2.55 19.25-2.57 37.49l-.05 50.54-17.73-.02.19-191.01Zm139.5 53.16 18.24.02 42.15 100.1 44.06-100.02h3.21L959 156.64l43.15-100.02 18.44.02-59.99 137.75h-3.29l-43.97-98.71-44.13 98.62h-3.3L807.17 56.44Zm623.47 88.72 14.94 7.87c-4.91 9.62-10.58 17.39-17.01 23.29-6.43 5.91-13.66 10.4-21.69 13.47-8.03 3.07-17.12 4.61-27.26 4.6-22.48-.02-40.05-7.4-52.72-22.15-12.66-14.74-18.99-31.41-18.97-49.98.02-17.48 5.4-33.05 16.14-46.72 13.62-17.38 31.84-26.06 54.66-26.04 23.49.02 42.25 8.95 56.26 26.78 9.96 12.59 15.02 28.3 15.17 47.13l-124-.11c.32 16.01 5.43 29.13 15.31 39.38 9.88 10.24 22.09 15.37 36.64 15.39 7.02.01 13.84-1.21 20.48-3.64s12.28-5.67 16.94-9.7c4.65-4.06 9.69-10.57 15.11-19.57Zm.03-37.11c-2.36-9.46-5.8-17.02-10.32-22.68-4.52-5.66-10.49-10.23-17.93-13.7-7.44-3.47-15.26-5.21-23.45-5.21-13.53-.01-25.16 4.33-34.89 13.01-7.11 6.33-12.49 15.82-16.13 28.48l102.72.1Z"></path><path fill="#34D399" d="M1018.84 194.38c-1.29 0-2.59-.27-3.84-.85-4.57-2.12-6.55-7.54-4.43-12.11l42.67-91.84c9.84-21.19 25.77-33.5 43.68-33.78 17.55-.3 33.5 11.19 43.66 31.44l33.85 67.42c6.9 13.75 16.74 21.48 27.09 21.39 10.64-.16 20.64-8.63 27.42-23.22l42.43-91.32c2.12-4.57 7.54-6.56 12.11-4.43 4.57 2.12 6.55 7.54 4.43 12.11l-42.43 91.32c-9.84 21.19-25.77 33.5-43.68 33.78-17.69.16-33.5-11.19-43.66-31.44l-33.85-67.42c-6.9-13.75-16.67-21.61-27.09-21.38-10.64.16-20.64 8.63-27.42 23.22l-42.67 91.84c-1.54 3.32-4.83 5.27-8.27 5.27Z"></path><path fill="currentFill" d="M1435.27 3.28c8.1 0 14.9 6.36 14.9 14.7s-6.79 14.86-14.9 14.86-14.9-6.36-14.9-14.7 6.79-14.86 14.9-14.86Zm0 27.41c6.95 0 12.51-5.48 12.51-12.71s-5.56-12.55-12.51-12.55-12.51 5.44-12.51 12.71 5.56 12.55 12.51 12.55Zm-5.52-21.1h6.28c4.09 0 6.04 1.51 6.04 4.93 0 3.06-1.99 4.37-4.53 4.65l4.93 7.55h-2.58l-4.69-7.35h-3.06v7.35h-2.38V9.59h-.01Zm2.38 7.63h2.94c2.38 0 4.61-.12 4.61-2.82 0-2.38-2.03-2.66-3.85-2.66h-3.69v5.48h-.01Z"></path></svg>